<svg width="740" height="740" viewBox="0 0 740 740" fill="none" xmlns="http://www.w3.org/2000/svg">
<circle cx="370" cy="370" r="261" transform="rotate(-44.7778 370 370)" fill="#5865F2"/>
<path d="M462.383 458C462.803 458.999 463.015 460.072 463.007 461.156L417.133 527.239C417.086 533.271 423.489 537.172 428.828 534.365L512.748 510.186C515.362 508.812 517.004 506.106 517.015 503.153L518.142 212.551C518.159 208.155 514.618 204.573 510.223 204.539L371.264 205.001L371.264 238.396C371.264 239.456 371.474 240.504 371.883 241.482L417.133 349.741L462.383 458Z" fill="white"/>
<path d="M276.793 461.092C276.36 462.1 276.136 463.186 276.136 464.283L323.576 527.239C323.576 533.348 317.061 537.249 311.676 534.364L225.377 513.547C222.741 512.134 221.1 509.381 221.112 506.39L222.253 212.083C222.27 207.631 225.884 204.031 230.336 204.031L371 205V238.367C371 239.444 370.782 240.511 370.36 241.503L323.576 351.298L276.793 461.092Z" fill="white"/>
<path d="M371 215L371 465" stroke="white" stroke-width="15" stroke-linecap="round"/>
</svg>
