<svg width="188" height="62" viewBox="0 0 188 62" fill="none" xmlns="http://www.w3.org/2000/svg">
<path d="M8.00878 53.9037C1.00851 2.90365 32.5085 23.4038 30.5082 26.4035" stroke="#5865F2" stroke-width="14" stroke-linecap="round"/>
<path d="M52.0256 54.4921C57.0085 9.40376 35.0089 19.9042 33.0085 22.9038" stroke="#5865F2" stroke-width="14" stroke-linecap="round"/>
<path d="M73.0088 20.4037C64.5087 69.4038 110.009 62.4038 101.01 20.4038" stroke="#5865F2" stroke-width="14" stroke-linecap="round"/>
<path d="M123.009 7.59619C117.509 58.9039 129.009 52.4038 133.509 53.9039" stroke="#5865F2" stroke-width="14" stroke-linecap="round"/>
<path d="M118.009 19.004C119.009 17.9043 130.661 19.3675 134.009 19.9038" stroke="#5865F2" stroke-width="14" stroke-linecap="round"/>
<path d="M118.009 19.004C119.009 17.9043 130.661 19.3675 134.009 19.9038" stroke="#5865F2" stroke-width="14" stroke-linecap="round"/>
<path d="M32.0085 46.4038C31.0085 31.0091 31.0085 33.917 31.0085 33.4038" stroke="#5865F2" stroke-width="12" stroke-linecap="square"/>
<path fill-rule="evenodd" clip-rule="evenodd" d="M164.509 60.4038C178.04 60.4038 188.009 49.6587 188.009 36.4038C188.009 23.149 177.04 12.4038 163.509 12.4038C149.978 12.4038 140.009 22.149 140.009 35.4038C140.009 48.6587 150.978 60.4038 164.509 60.4038ZM164.217 46.4038C169.855 46.4038 174.009 41.9267 174.009 36.4038C174.009 30.881 169.438 26.4038 163.8 26.4038C158.162 26.4038 154.009 30.4643 154.009 35.9872C154.009 41.51 158.579 46.4038 164.217 46.4038Z" fill="#5865F2"/>
</svg>
